<?xml version="1.0" encoding="UTF-8" standalone="no"?><!DOCTYPE svg PUBLIC "-//W3C//DTD SVG 1.1//EN" "http://www.w3.org/Graphics/SVG/1.1/DTD/svg11.dtd"><svg width="100%" height="100%" viewBox="0 0 1815 658" version="1.1" xmlns="http://www.w3.org/2000/svg" xmlns:xlink="http://www.w3.org/1999/xlink" xml:space="preserve" xmlns:serif="http://www.serif.com/" style="fill-rule:evenodd;clip-rule:evenodd;stroke-linecap:round;stroke-linejoin:round;stroke-miterlimit:1.5;"><g><g><g><path d="M606.083,132.276c56.627,94.232 -17.097,195.29 -100.014,261.836c-39.621,31.799 63.828,262.939 128.421,207.734l2.085,-2.277c38.312,-51.082 83.964,-285.118 73.321,-348.973c-4.579,-27.476 -58.1,-60.831 -77.962,-78.89c-11.611,-10.557 -25.851,-39.43 -25.851,-39.43Z" style="fill:none;stroke:#fff;stroke-width:25.41px;"/><g><path d="M215.749,262.301c-17.752,9.693 -56.392,44.018 -58.323,46.296c-55.249,65.189 -17.522,229.871 -24.82,257.56c-6.317,23.966 -25.31,46.381 -44.754,74.38" style="fill:none;stroke:#fff;stroke-width:25.41px;"/><path d="M132.606,566.157c4.903,-126.678 102.254,-102.056 122.087,-150.702c11.89,-29.163 -57.327,-125.697 -33.464,-156.753" style="fill:none;stroke:#fff;stroke-width:25.41px;"/></g><g><path d="M273.666,209.519c-53.815,42.92 36.992,159.689 41.848,252.282c1.859,35.435 -15.494,154.745 -52.504,163.684" style="fill:none;stroke:#fff;stroke-width:25.41px;"/><path d="M252.49,232.674c45.533,-56.997 202.424,-111.932 235.586,-18.274c23.61,66.683 1.578,149.081 -55.992,154c-13.28,1.134 -113.29,15.537 -116.179,105.52" style="fill:none;stroke:#fff;stroke-width:25.41px;"/><path d="M534.874,632.944c-50.995,3.767 -168.676,-243.841 -97.568,-264.982" style="fill:none;stroke:#fff;stroke-width:25.41px;"/></g><path d="M498.507,12.83c-27.331,-2.091 -61.879,22.179 -77.256,29.868c-54.524,27.262 -98.64,68.494 -129.937,120.655c-14.83,24.717 -8.325,34.154 -31.556,61.256c-27.186,31.718 -67.7,48.21 -96.524,77.034c-71.525,71.525 -120.763,105.529 -136.324,214.456c-3.104,21.725 -23.25,68.704 -9.391,87.183c16.899,22.532 48.58,36.468 76.106,39.909c63.924,7.99 123.304,-10.032 185.624,-20.419c31.329,-5.221 65.812,0.731 97.452,-2.784c62.375,-6.931 123.586,20.132 186.552,11.137c22.028,-3.147 59.586,-13.241 73.322,-31.556c38.312,-51.082 83.964,-285.118 73.321,-348.973c-4.579,-27.476 -58.98,-59.908 -77.962,-78.89c-19.641,-19.641 -26.461,-46.11 -42.693,-67.752c-14.036,-18.715 -55.394,-88.42 -90.734,-91.124Z" style="fill:none;stroke:#fff;stroke-width:25.41px;"/></g></g><text x="768.862px" y="584.1px" style="font-family:'Futura-Medium', 'Futura', sans-serif;font-weight:500;font-size:412.37px;fill:#fff;">S<tspan x="1016.32px 1131.9px 1379.77px " y="584.1px 584.1px 584.1px ">ton</tspan>e</text></g></svg>